<svg width="100%" height="100%" viewBox="0 0 1440 1058" fill="none" xmlns="http://www.w3.org/2000/svg" class="w-[600px] h-auto absolute top-[300px] right-[0] lg:top-[2%] lg:w-screen lg:h-[1000px] -z-10 animate-pulseSlow "><path d="M1394.54 -435.588C1075.06 -257.201 582.935 45.8368 975.973 271.753C1476.14 559.247 2275.32 134.747 2022.87 596.324" stroke="url(#paint0_linear_352_821)" stroke-width="8.2894"></path><path d="M1647.66 -488.668C1328.17 -310.281 836.052 -7.24324 1229.09 218.673C1729.26 506.167 2528.44 81.667 2275.99 543.243" stroke="url(#paint1_linear_352_821)" stroke-width="8.2894"></path><path d="M1520.9 -463.084C1201.42 -284.697 709.294 18.3407 1102.33 244.257C1602.5 531.751 2401.68 107.251 2149.23 568.827" stroke="url(#paint2_linear_352_821)" stroke-width="8.2894"></path><path d="M1268.77 -405.515C949.287 -227.129 457.166 75.9091 850.203 301.825C1350.37 589.32 2149.55 164.819 1897.1 626.396" stroke="url(#paint3_linear_352_821)" stroke-width="8.2894"></path><path d="M1143.76 -372.431C824.275 -194.045 332.154 108.993 725.192 334.909C1225.36 622.404 2024.54 197.903 1772.09 659.48" stroke="url(#paint4_linear_352_821)" stroke-width="8.2894"></path><path d="M1018.87 -335.912C699.391 -157.525 207.269 145.513 600.307 371.429C1100.47 658.923 1899.65 234.423 1647.21 695.999" stroke="url(#paint5_linear_352_821)" stroke-width="8.2894"></path><path d="M895.386 -297.531C575.902 -119.145 83.7808 183.893 476.818 409.81C976.987 697.304 1776.17 272.804 1523.72 734.38" stroke="url(#paint6_linear_352_821)" stroke-width="8.2894"></path><path d="M772.466 -257.371C452.982 -78.9844 -39.1391 224.054 353.899 449.97C854.067 737.464 1653.25 312.964 1400.8 774.54" stroke="url(#paint7_linear_352_821)" stroke-width="8.2894"></path><path d="M528.792 -170.725C209.309 7.66111 -282.813 310.699 110.225 536.615C610.393 824.11 1409.57 399.609 1157.12 861.186" stroke="url(#paint8_linear_352_821)" stroke-width="8.2894"></path><path d="M408.376 -123.586C88.8926 54.8008 -403.229 357.839 -10.1913 583.755C489.977 871.249 1289.16 446.749 1036.71 908.325" stroke="url(#paint9_linear_352_821)" stroke-width="8.2894"></path><path d="M650.22 -215.199C330.736 -36.8125 -161.385 266.226 231.652 492.142C731.821 779.636 1531 355.136 1278.55 816.712" stroke="url(#paint10_linear_352_821)" stroke-width="8.2894"></path><defs><linearGradient id="paint0_linear_352_821" x1="1210.12" y1="-366.359" x2="1627.24" y2="744.836" gradientUnits="userSpaceOnUse"><stop offset="0.447917" stop-color="#000313" stop-opacity="0"></stop><stop offset="0.666667" stop-color="#012AE9"></stop><stop offset="0.8125" stop-color="#000313" stop-opacity="0"></stop></linearGradient><linearGradient id="paint1_linear_352_821" x1="1463.24" y1="-419.439" x2="1880.36" y2="691.756" gradientUnits="userSpaceOnUse"><stop offset="0.447917" stop-color="#000313" stop-opacity="0"></stop><stop offset="0.666667" stop-color="#012AE9"></stop><stop offset="0.8125" stop-color="#000313" stop-opacity="0"></stop></linearGradient><linearGradient id="paint2_linear_352_821" x1="1336.48" y1="-393.855" x2="1753.6" y2="717.34" gradientUnits="userSpaceOnUse"><stop offset="0.447917" stop-color="#000313" stop-opacity="0"></stop><stop offset="0.666667" stop-color="#012AE9"></stop><stop offset="0.8125" stop-color="#000313" stop-opacity="0"></stop></linearGradient><linearGradient id="paint3_linear_352_821" x1="1084.35" y1="-336.287" x2="1501.47" y2="774.908" gradientUnits="userSpaceOnUse"><stop offset="0.447917" stop-color="#000313" stop-opacity="0"></stop><stop offset="0.666667" stop-color="#012AE9"></stop><stop offset="0.8125" stop-color="#000313" stop-opacity="0"></stop></linearGradient><linearGradient id="paint4_linear_352_821" x1="959.338" y1="-303.203" x2="1376.46" y2="807.992" gradientUnits="userSpaceOnUse"><stop offset="0.447917" stop-color="#000313" stop-opacity="0"></stop><stop offset="0.666667" stop-color="#012AE9"></stop><stop offset="0.8125" stop-color="#000313" stop-opacity="0"></stop></linearGradient><linearGradient id="paint5_linear_352_821" x1="834.454" y1="-266.684" x2="1251.58" y2="844.512" gradientUnits="userSpaceOnUse"><stop offset="0.447917" stop-color="#000313" stop-opacity="0"></stop><stop offset="0.666667" stop-color="#012AE9"></stop><stop offset="0.8125" stop-color="#000313" stop-opacity="0"></stop></linearGradient><linearGradient id="paint6_linear_352_821" x1="710.965" y1="-228.303" x2="1128.09" y2="882.893" gradientUnits="userSpaceOnUse"><stop offset="0.447917" stop-color="#000313" stop-opacity="0"></stop><stop offset="0.666667" stop-color="#012AE9"></stop><stop offset="0.8125" stop-color="#000313" stop-opacity="0"></stop></linearGradient><linearGradient id="paint7_linear_352_821" x1="588.045" y1="-188.143" x2="1005.17" y2="923.053" gradientUnits="userSpaceOnUse"><stop offset="0.447917" stop-color="#000313" stop-opacity="0"></stop><stop offset="0.666667" stop-color="#012AE9"></stop><stop offset="0.8125" stop-color="#000313" stop-opacity="0"></stop></linearGradient><linearGradient id="paint8_linear_352_821" x1="344.372" y1="-101.497" x2="761.495" y2="1009.7" gradientUnits="userSpaceOnUse"><stop offset="0.447917" stop-color="#000313" stop-opacity="0"></stop><stop offset="0.666667" stop-color="#012AE9"></stop><stop offset="0.8125" stop-color="#000313" stop-opacity="0"></stop></linearGradient><linearGradient id="paint9_linear_352_821" x1="223.956" y1="-54.3574" x2="641.079" y2="1056.84" gradientUnits="userSpaceOnUse"><stop offset="0.447917" stop-color="#000313" stop-opacity="0"></stop><stop offset="0.666667" stop-color="#012AE9"></stop><stop offset="0.8125" stop-color="#000313" stop-opacity="0"></stop></linearGradient><linearGradient id="paint10_linear_352_821" x1="465.799" y1="-145.971" x2="882.923" y2="965.225" gradientUnits="userSpaceOnUse"><stop offset="0.447917" stop-color="#000313" stop-opacity="0"></stop><stop offset="0.666667" stop-color="#012AE9"></stop><stop offset="0.8125" stop-color="#000313" stop-opacity="0"></stop></linearGradient></defs></svg>